# AST/ASF file generated using VICON BodyLanguage
# -----------------------------------------------
:version 1.10
:name VICON
:units
  mass 1.0
  length 0.45
  angle deg
:documentation
   .ast/.asf automatically generated from VICON data using
   VICON BodyBuilder and BodyLanguage model FoxedUp or BRILLIANT.MOD
:root
   order TX TY TZ RX RY RZ
   axis XYZ
   position 0 0 0  
   orientation 0 0 0 
:bonedata
  begin
     id 1 
     name lhipjoint
     direction 0.54267 -0.795011 0.271047 
     length 2.39899 
     axis 0 0 0  XYZ
  end
  begin
     id 2 
     name lfemur
     direction 0.34202 -0.939693 0  
     length 7.49701  
     axis 0 0 20  XYZ
    dof rx ry rz
    limits (-160.0 20.0)
           (-70.0 70.0)
           (-60.0 70.0)
  end
  begin
     id 3 
     name ltibia
     direction 0.34202 -0.939693 0   
     length 8.1668   
     axis 0 0 20   XYZ
    dof rx
    limits (-10.0 170.0)
  end
  begin
     id 4 
     name lfoot
     direction 0.0736283 -0.202292 0.976554   
     length 2.13544   
     axis -90 7.62852e-016 20   XYZ
    dof rx rz
    limits (-45.0 90.0)
           (-70.0 20.0)
  end
  begin
     id 5 
     name ltoes
     direction 1.53557e-011 -4.22024e-011 1   
     length 1.07411   
     axis -90 7.62852e-016 20   XYZ
    dof rx
    limits (-90.0 20.0)
  end
  begin
     id 6 
     name rhipjoint
     direction -0.538061 -0.797813 0.272002   
     length 2.39057  
     axis 0 0 0  XYZ 
  end
  begin
     id 7 
     name rfemur
     direction -0.34202 -0.939693 0   
     length 7.50152   
     axis 0 0 -20   XYZ
    dof rx ry rz
    limits (-160.0 20.0)
           (-70.0 70.0)
           (-70.0 60.0)
  end
  begin
     id 8 
     name rtibia
     direction -0.34202 -0.939693 0   
     length 8.05793   
     axis 0 0 -20   XYZ
    dof rx
    limits (-10.0 170.0)
 end
 begin
     id 9 
     name rfoot
     direction -0.0765195 -0.210236 0.974652   
     length 2.28698  
     axis -90 -7.62852e-016 -20   XYZ
    dof rx rz
    limits (-45.0 90.0)
           (-20.0 70.0)
  end
  begin
     id 10 
     name rtoes
     direction -1.53542e-011 -4.21847e-011 1   
     length 1.14762   
     axis -90 -7.62852e-016 -20   XYZ
    dof rx
    limits (-90.0 20.0)
  end
  begin
     id 11 
     name lowerback
     direction -0.0217239 0.996592 -0.0795765   
     length 2.08176   
     axis 0 0 0   XYZ
    dof rx ry rz
    limits (-20.0 45.0)
           (-30.0 30.0)
           (-30.0 30.0)
  end
  begin
     id 12 
     name upperback
     direction -0.00563773 0.999651 -0.0258155   
     length 2.08898   
     axis 0 0 0   XYZ
    dof rx ry rz
    limits (-20.0 45.0)
           (-30.0 30.0)
           (-30.0 30.0)
  end
  begin
     id 13 
     name thorax
     direction 0.0032706 0.999923 0.0119599   
     length 2.0968   
     axis 0 0 0   XYZ
    dof rx ry rz
    limits (-20.0 45.0)
           (-30.0 30.0)
           (-30.0 30.0)
  end
  begin
     id 14 
     name lowerneck
     direction -0.0285886 0.99568 0.0883427   
     length 1.81272   
     axis 0 0 0   XYZ
    dof rx ry rz
    limits (-20.0 45.0)
           (-30.0 30.0)
           (-30.0 30.0)
  end
  begin
     id 15 
     name upperneck
     direction 0.0807535 0.97985 -0.18268   
     length 1.82518   
     axis 0 0 0   XYZ
    dof rx ry rz
    limits (-20.0 45.0)
           (-30.0 30.0)
           (-30.0 30.0)
  end
  begin
     id 16
     name head
     direction 0.0236605 0.997053 -0.0729767  
     length 1.84443  
     axis 0 0 0   XYZ
    dof rx ry rz
    limits (-20.0 45.0)
           (-30.0 30.0)
           (-30.0 30.0)
  end
  begin
     id 17 
     name lclavicle
     direction 0.918986 0.39378 -0.0200683  
     length 3.27822  
     axis 0 0 0   XYZ
    dof ry rz
    limits (-20.0 10.0)
           (0.0 20.0)
  end
  begin
     id 18 
     name lhumerus
     direction 1 -4.4897e-011 2.09544e-027   
     length 5.5568   
     axis 180 -30 -90   XYZ
    dof rx ry rz
    limits (-60.0 90.0)
           (-90.0 90.0)
           (-90.0 90.0)
  end
  begin
     id 19
     name lradius
     direction 1 -4.48957e-011 -1.27696e-026   
     length 3.63979   
     axis 180 -30 -90   XYZ
    dof rx
    limits (-10.0 170.0)
  end
  begin
     id 20
     name lwrist
     direction 1 -4.49001e-011 -1.49001e-026   
     length 1.8199   
     axis 9.0955e-015 90 90   XYZ
    dof ry
    limits (-180.0 0.0)
 end
  begin
     id 21 
     name lhand
     direction 1 -4.48709e-011 -2.9758e-026   
     length 0.569419   
     axis 1.90115e-014 90 90   XYZ
    dof rx rz
    limits (-90.0 90.0)
           (-45.0 45.0)
  end
  begin
     id 22 
     name lfingers
     direction 1 -4.49175e-011 -5.96505e-026   
     length 0.45908   
     axis 3.80223e-014 90 90   XYZ
    dof rx
    limits (0.0 90.0)
  end
  begin
     id 23
     name lthumb
     direction 0.707107 -6.34864e-011 0.707107   
     length 0.65915   
     axis -90 45 -3.84942e-014   XYZ
    dof rx rz
    limits (-45.0 45.0)
           (-45.0 45.0)
  end
  begin
     id 24 
     name rclavicle
     direction -0.911913 0.396426 -0.106115   
     length 3.46301  
     axis 0 0 0   XYZ 
    dof ry rz
    limits (-10.0 20.0)
           (-20.0 0.0)
  end
  begin
     id 25 
     name rhumerus
     direction -1 -4.48965e-011 7.78516e-028  
     length 5.34339   
     axis 180 30 90   XYZ
    dof rx ry rz
    limits (-90.0 60.0)
           (-90.0 90.0)
           (-90.0 90.0)
  end
  begin
     id 26 
     name rradius
     direction -1 -4.48948e-011 -5.79823e-027   
     length 3.65101   
     axis 180 30 90   XYZ
    dof rx
    limits (-10.0 170.0)
  end
  begin
     id 27 
     name rwrist
     direction -1 -4.48995e-011 -1.48996e-026   
     length 1.8255   
     axis 9.0955e-015 -90 -90   XYZ
    dof ry
    limits (-180.0 0.0)
  end
  begin
     id 28
     name rhand
     direction -1 -4.48957e-011 -2.97937e-026   
     length 0.694249   
     axis 1.90115e-014 -90 -90   XYZ
    dof rx rz
    limits (-90.0 90.0)
           (-45.0 45.0)
  end
  begin
     id 29
     name rfingers
     direction -1 -4.4898e-011 -5.95943e-026   
     length 0.559721   
     axis 3.80223e-014 -90 -90   XYZ
    dof rx
    limits (0.0 90.0)
  end
  begin
     id 30
     name rthumb
     direction -0.707107 -6.34969e-011 0.707107   
     length 0.803651   
     axis -90 -45 3.84942e-014   XYZ
    dof rx rz
    limits (-45.0 45.0)
           (-45.0 45.0)
  end
:hierarchy
  begin
    root lhipjoint rhipjoint lowerback
    lhipjoint lfemur
    lfemur ltibia
    ltibia lfoot
    lfoot ltoes
    rhipjoint rfemur
    rfemur rtibia
    rtibia rfoot
    rfoot rtoes
    lowerback upperback
    upperback thorax
    thorax lowerneck lclavicle rclavicle
    lowerneck upperneck
    upperneck head
    lclavicle lhumerus
    lhumerus lradius
    lradius lwrist
    lwrist lhand lthumb
    lhand lfingers
    rclavicle rhumerus
    rhumerus rradius
    rradius rwrist
    rwrist rhand rthumb
    rhand rfingers
  end

#!OML:ASF H:\Terrain\Walking\May29\JustinRory\rory.ASF
:FULLY-SPECIFIED
:DEGREES
256
root 12.7131 18.1862 -11.7261 -6.25486 -12.7814 3.87027
lowerback 1.3591 0.158905 -3.2104
upperback 0.055871 0.163816 0.25253
thorax -0.714489 0.0927682 2.05549
lowerneck -13.7869 -5.15685 -4.86356
upperneck 19.5576 -6.56716 2.27291
head 8.61149 -3.24061 0.805132
rclavicle 1.59525e-014 0
rhumerus -42.2714 -32.8797 -59.0659
rradius 17.3509
rwrist 14.3667
rhand -28.5449 31.266
rfingers 7.12502
rthumb -1.91214 1.29483
lclavicle 1.59525e-014 0
lhumerus -38.625 23.2145 71.5724
lradius 21.2489
lwrist -0.123889
lhand -29.1504 20.9705
lfingers 7.12502
lthumb -2.49698 50.9357
rfemur -14.5587 11.3243 15.9628
rtibia 25.48
rfoot -4.90425 1.94717
rtoes 17.8479
lfemur -5.3405 -0.11483 -17.3452
ltibia 54.164
lfoot 22.442 -16.1274
ltoes -1.4445
257
root 12.7365 18.1587 -11.7983 -6.33077 -12.9724 4.00353
lowerback 1.45157 0.210932 -3.56488
upperback -0.0962685 0.221204 0.253347
thorax -0.927336 0.128561 2.25364
lowerneck -13.3635 -5.55254 -5.34163
upperneck 19.5575 -7.10409 2.58865
head 8.58689 -3.50241 0.933582
rclavicle 1.84373e-014 8.74653e-015
rhumerus -44.0222 -34.0285 -56.5167
rradius 16.8229
rwrist 15.4146
rhand -28.7216 30.1629
rfingers 7.12502
rthumb -2.08285 0.193327
lclavicle 1.84373e-014 8.74653e-015
lhumerus -38.7835 24.7672 71.0634
lradius 21.0505
lwrist -2.28691
lhand -28.8377 21.3914
lfingers 7.12502
lthumb -2.19493 51.3599
rfemur -15.0454 11.4806 15.7828
rtibia 25.8159
rfoot -4.6727 2.13169
rtoes 18.0895
lfemur -4.1222 -0.476547 -17.6716
ltibia 52.9781
lfoot 20.1978 -19.6798
ltoes -8.2709
258
root 12.766 18.14 -11.8671 -6.23756 -13.1969 3.82301
lowerback 1.35315 0.127113 -3.51447
upperback -0.156552 0.112982 0.23646
thorax -0.926755 0.0749954 2.21051
lowerneck -13.1023 -5.80099 -5.39432
upperneck 19.3081 -7.50741 2.8722
head 8.48587 -3.67226 0.997624
rclavicle 6.95746e-016 9.93923e-015
rhumerus -45.3891 -35.1421 -54.3356
rradius 16.0719
rwrist 16.7575
rhand -28.9508 29.9553
rfingers 7.12502
rthumb -2.30416 -0.0119799
lclavicle 6.95746e-016 9.93923e-015
lhumerus -38.9659 23.3344 71.6191
lradius 22.0166
lwrist -0.594207
lhand -28.9123 21.9125
lfingers 7.12502
lthumb -2.26699 51.8802
rfemur -15.6462 11.5289 15.9091
rtibia 26.2426
rfoot -4.65025 2.41897
rtoes 17.1467
lfemur -3.01757 -0.876707 -17.7043
ltibia 51.7178
lfoot 21.4269 -18.9045
ltoes -3.49266
259
root 12.7959 18.1228 -11.9363 -6.09154 -13.5315 3.57645
lowerback 0.943792 -0.057574 -3.4084
upperback 0.0356656 -0.112746 0.183374
thorax -0.485684 -0.0486125 2.1002
lowerneck -13.3233 -5.97675 -5.13531
upperneck 19.1071 -7.82627 3.04107
head 8.46757 -3.78458 0.969514
rclavicle -1.18028e-014 1.90833e-014
rhumerus -46.8326 -37.5987 -51.5162
rradius 15.0747
rwrist 20.2178
rhand -28.8978 31.1373
rfingers 7.12502
rthumb -2.25299 1.1695
lclavicle -1.18028e-014 1.90833e-014
lhumerus -39.1936 21.5811 72.2971
lradius 23.4436
lwrist 1.9928
lhand -26.7542 25.5318
lfingers 7.12502
lthumb -0.182726 55.5115
rfemur -16.3048 11.8132 16.0929
rtibia 26.6766
rfoot -4.49829 2.46542
rtoes 15.8054
lfemur -1.94755 -1.28065 -17.6765
ltibia 50.4178
lfoot 21.7918 -18.6261
ltoes -1.06981
260
root 12.8305 18.0963 -12.016 -6.06242 -13.8295 3.90708
lowerback 0.65143 -0.166244 -3.90251
upperback 0.213543 -0.246717 0.0514397
thorax -0.129477 -0.124161 2.24213
lowerneck -13.5456 -6.30286 -5.41358
upperneck 18.9932 -8.29949 3.49419
head 8.52338 -3.9787 1.10101
rclavicle 7.95139e-016 7.95139e-016
rhumerus -47.9178 -39.0897 -49.5011
rradius 14.6235
rwrist 22.4294
rhand -28.4117 31.3356
rfingers 7.12502
rthumb -1.78358 1.36332
lclavicle 7.95139e-016 7.95139e-016
lhumerus -39.0357 21.1096 72.7353
lradius 24.0673
lwrist 2.84348
lhand -27.5362 23.4338
lfingers 7.12502
lthumb -0.938001 53.4114
rfemur -17.0266 12.249 15.5966
rtibia 27.0062
rfoot -4.10117 2.45087
rtoes 15.4159
lfemur -0.926831 -1.77112 -18.3528
ltibia 49.0998
lfoot 22.1588 -17.9305
ltoes 4.18439
261
root 12.8684 18.0701 -12.1056 -6.13018 -13.8954 4.37443
lowerback 0.765391 -0.301383 -4.54393
upperback 0.141592 -0.43926 -0.0481773
thorax -0.25011 -0.216686 2.50181
lowerneck -13.0863 -6.69471 -6.32117
upperneck 18.7565 -8.85489 4.38575
head 8.47479 -4.22555 1.48928
rclavicle -1.56294e-014 -5.1684e-015
rhumerus -48.5067 -38.2944 -49.2013
rradius 15.1825
rwrist 22.1155
rhand -27.6889 29.7508
rfingers 7.12502
rthumb -1.08547 -0.226221
lclavicle -1.56294e-014 -5.1684e-015
lhumerus -38.5149 20.3072 73.2862
lradius 24.1109
lwrist 4.08034
lhand -28.5876 21.0056
lfingers 7.12502
lthumb -1.95338 50.9764
rfemur -17.6553 12.3989 14.9471
rtibia 27.323
rfoot -3.81362 2.45753
rtoes 16.0197
lfemur -0.0205808 -2.42423 -19.2267
ltibia 47.7608
lfoot 22.113 -17.8479
ltoes 6.14894
262
root 12.9021 18.0541 -12.2014 -6.10599 -13.9212 4.48815
lowerback 0.717714 -0.520123 -4.87839
upperback 0.134277 -0.73107 -0.0498508
thorax -0.204234 -0.363306 2.68945
lowerneck -12.4706 -7.05321 -7.11981
upperneck 18.3554 -9.37975 5.20644
head 8.34229 -4.46387 1.84618
rclavicle 2.41026e-015 3.97569e-016
rhumerus -48.6872 -37.0025 -49.5224
rradius 15.8153
rwrist 21.5082
rhand -27.0391 28.995
rfingers 7.12502
rthumb -0.457883 -0.984222
lclavicle 2.41026e-015 3.97569e-016
lhumerus -38.0714 19.8845 73.5088
lradius 24.3751
lwrist 4.6543
lhand -28.6762 21.795
lfingers 7.12502
lthumb -2.03903 51.765
rfemur -18.2532 12.5351 14.7149
rtibia 27.6517
rfoot -3.77258 2.34723
rtoes 17.0111
lfemur 0.683768 -3.15991 -19.6663
ltibia 46.4067
lfoot 22.1406 -18.2187
ltoes 5.21745
